<svg width="145" height="37" viewBox="0 0 145 37" fill="none" xmlns="http://www.w3.org/2000/svg">
<path d="M15.7881 2.4C18.8601 2.4 21.1481 3.12 22.6521 4.56C24.1561 6 24.9081 8.128 24.9081 10.944C24.9081 12.448 24.5401 13.776 23.8041 14.928C23.0681 16.048 21.9801 16.928 20.5401 17.568C19.1001 18.176 17.3241 18.48 15.2121 18.48L15.4041 16.32C16.3961 16.32 17.5321 16.464 18.8121 16.752C20.0921 17.008 21.3241 17.488 22.5081 18.192C23.7241 18.864 24.7161 19.824 25.4841 21.072C26.2841 22.288 26.6841 23.856 26.6841 25.776C26.6841 27.888 26.3321 29.616 25.6281 30.96C24.9561 32.304 24.0601 33.344 22.9401 34.08C21.8201 34.816 20.6201 35.328 19.3401 35.616C18.0601 35.872 16.8281 36 15.6441 36H3.69206C2.86006 36 2.15606 35.728 1.58006 35.184C1.03606 34.608 0.764063 33.904 0.764063 33.072V5.328C0.764063 4.496 1.03606 3.808 1.58006 3.264C2.15606 2.688 2.86006 2.4 3.69206 2.4H15.7881ZM14.9241 8.064H6.38006L7.00406 7.296V15.984L6.42806 15.552H15.0681C15.9961 15.552 16.8281 15.248 17.5641 14.64C18.3001 14.032 18.6681 13.152 18.6681 12C18.6681 10.624 18.3161 9.632 17.6121 9.024C16.9401 8.384 16.0441 8.064 14.9241 8.064ZM15.3081 21.216H6.57206L7.00406 20.832V30.96L6.52406 30.48H15.6441C17.1161 30.48 18.2841 30.096 19.1481 29.328C20.0121 28.528 20.4441 27.344 20.4441 25.776C20.4441 24.336 20.1561 23.296 19.5801 22.656C19.0041 22.016 18.3161 21.616 17.5161 21.456C16.7161 21.296 15.9801 21.216 15.3081 21.216ZM34.7612 33.072C34.7612 33.904 34.4892 34.608 33.9452 35.184C33.4012 35.728 32.7132 36 31.8812 36C31.0492 36 30.3612 35.728 29.8172 35.184C29.2732 34.608 29.0012 33.904 29.0012 33.072V13.248C29.0012 12.416 29.2732 11.728 29.8172 11.184C30.3612 10.608 31.0492 10.32 31.8812 10.32C32.7132 10.32 33.4012 10.608 33.9452 11.184C34.4892 11.728 34.7612 12.416 34.7612 13.248V33.072ZM31.8332 7.2C30.7452 7.2 29.9772 7.024 29.5292 6.672C29.0812 6.32 28.8572 5.696 28.8572 4.8V3.888C28.8572 2.96 29.0972 2.336 29.5772 2.016C30.0892 1.664 30.8572 1.488 31.8812 1.488C33.0012 1.488 33.7852 1.664 34.2332 2.016C34.6812 2.368 34.9052 2.992 34.9052 3.888V4.8C34.9052 5.728 34.6652 6.368 34.1852 6.72C33.7052 7.04 32.9212 7.2 31.8332 7.2ZM44.5209 33.072C44.5209 33.904 44.2329 34.608 43.6569 35.184C43.1129 35.728 42.4249 36 41.5929 36C40.7929 36 40.1209 35.728 39.5769 35.184C39.0329 34.608 38.7609 33.904 38.7609 33.072V3.408C38.7609 2.576 39.0329 1.888 39.5769 1.344C40.1529 0.767999 40.8569 0.48 41.6889 0.48C42.5209 0.48 43.1929 0.767999 43.7049 1.344C44.2489 1.888 44.5209 2.576 44.5209 3.408V33.072ZM60.4457 36.48C57.7257 36.48 55.3577 35.92 53.3417 34.8C51.3577 33.648 49.8217 32.096 48.7337 30.144C47.6777 28.192 47.1497 25.984 47.1497 23.52C47.1497 20.64 47.7257 18.192 48.8777 16.176C50.0617 14.128 51.5977 12.56 53.4857 11.472C55.3737 10.384 57.3737 9.84 59.4857 9.84C61.1177 9.84 62.6537 10.176 64.0937 10.848C65.5657 11.52 66.8617 12.448 67.9817 13.632C69.1017 14.784 69.9817 16.128 70.6217 17.664C71.2937 19.2 71.6297 20.832 71.6297 22.56C71.5977 23.328 71.2937 23.952 70.7177 24.432C70.1417 24.912 69.4697 25.152 68.7017 25.152H50.3657L48.9257 20.352H66.5417L65.4857 21.312V20.016C65.4217 19.088 65.0857 18.256 64.4777 17.52C63.9017 16.784 63.1657 16.208 62.2697 15.792C61.4057 15.344 60.4777 15.12 59.4857 15.12C58.5257 15.12 57.6297 15.248 56.7977 15.504C55.9657 15.76 55.2457 16.192 54.6377 16.8C54.0297 17.408 53.5497 18.224 53.1977 19.248C52.8457 20.272 52.6697 21.568 52.6697 23.136C52.6697 24.864 53.0217 26.336 53.7257 27.552C54.4617 28.736 55.3897 29.648 56.5097 30.288C57.6617 30.896 58.8777 31.2 60.1577 31.2C61.3417 31.2 62.2857 31.104 62.9897 30.912C63.6937 30.72 64.2537 30.496 64.6697 30.24C65.1177 29.952 65.5177 29.712 65.8697 29.52C66.4457 29.232 66.9897 29.088 67.5017 29.088C68.2057 29.088 68.7817 29.328 69.2297 29.808C69.7097 30.288 69.9497 30.848 69.9497 31.488C69.9497 32.352 69.5017 33.136 68.6057 33.84C67.7737 34.544 66.6057 35.168 65.1017 35.712C63.5977 36.224 62.0457 36.48 60.4457 36.48ZM74.5502 10.8H85.9262C86.6942 10.8 87.3342 11.056 87.8462 11.568C88.3582 12.08 88.6142 12.72 88.6142 13.488C88.6142 14.224 88.3582 14.848 87.8462 15.36C87.3342 15.84 86.6942 16.08 85.9262 16.08H74.5502C73.7822 16.08 73.1422 15.824 72.6302 15.312C72.1182 14.8 71.8622 14.16 71.8622 13.392C71.8622 12.656 72.1182 12.048 72.6302 11.568C73.1422 11.056 73.7822 10.8 74.5502 10.8ZM79.6862 4.8C80.5182 4.8 81.1902 5.088 81.7022 5.664C82.2462 6.208 82.5182 6.896 82.5182 7.728V29.088C82.5182 29.536 82.5982 29.904 82.7582 30.192C82.9502 30.48 83.1902 30.688 83.4782 30.816C83.7982 30.944 84.1342 31.008 84.4862 31.008C84.8702 31.008 85.2222 30.944 85.5422 30.816C85.8622 30.656 86.2302 30.576 86.6462 30.576C87.0942 30.576 87.4942 30.784 87.8462 31.2C88.2302 31.616 88.4222 32.192 88.4222 32.928C88.4222 33.824 87.9262 34.56 86.9342 35.136C85.9742 35.712 84.9342 36 83.8142 36C83.1422 36 82.3902 35.952 81.5582 35.856C80.7582 35.728 79.9902 35.456 79.2542 35.04C78.5502 34.592 77.9582 33.92 77.4782 33.024C76.9982 32.128 76.7582 30.896 76.7582 29.328V7.728C76.7582 6.896 77.0302 6.208 77.5742 5.664C78.1502 5.088 78.8542 4.8 79.6862 4.8ZM94.4228 34.36C94.4228 34.8133 94.2628 35.2 93.9428 35.52C93.6495 35.84 93.2761 36 92.8228 36C92.3428 36 91.9561 35.84 91.6628 35.52C91.3695 35.2 91.2228 34.8133 91.2228 34.36V16.6C91.2228 16.1467 91.3695 15.7733 91.6628 15.48C91.9828 15.16 92.3695 15 92.8228 15C93.2761 15 93.6495 15.16 93.9428 15.48C94.2628 15.7733 94.4228 16.1467 94.4228 16.6V34.36ZM92.8228 12.32C92.1561 12.32 91.6628 12.1867 91.3428 11.92C91.0228 11.6533 90.8628 11.24 90.8628 10.68V10.12C90.8628 9.56 91.0361 9.14667 91.3828 8.88C91.7295 8.61333 92.2228 8.48 92.8628 8.48C93.5028 8.48 93.9828 8.61333 94.3028 8.88C94.6228 9.14667 94.7828 9.56 94.7828 10.12V10.68C94.7828 11.24 94.6095 11.6533 94.2628 11.92C93.9428 12.1867 93.4628 12.32 92.8228 12.32ZM108.451 14.8C110.264 14.8 111.691 15.1733 112.731 15.92C113.771 16.6667 114.504 17.6667 114.931 18.92C115.384 20.1733 115.611 21.5733 115.611 23.12V34.36C115.611 34.8133 115.451 35.2 115.131 35.52C114.838 35.84 114.464 36 114.011 36C113.558 36 113.171 35.84 112.851 35.52C112.558 35.2 112.411 34.8133 112.411 34.36V23.2C112.411 22.1867 112.251 21.28 111.931 20.48C111.638 19.6533 111.131 19 110.411 18.52C109.718 18.0133 108.758 17.76 107.531 17.76C106.411 17.76 105.384 18.0133 104.451 18.52C103.518 19 102.771 19.6533 102.211 20.48C101.651 21.28 101.371 22.1867 101.371 23.2V34.36C101.371 34.8133 101.211 35.2 100.891 35.52C100.598 35.84 100.224 36 99.7709 36C99.3176 36 98.9309 35.84 98.6109 35.52C98.3176 35.2 98.1709 34.8133 98.1709 34.36V16.92C98.1709 16.4667 98.3176 16.0933 98.6109 15.8C98.9309 15.48 99.3176 15.32 99.7709 15.32C100.251 15.32 100.638 15.48 100.931 15.8C101.224 16.0933 101.371 16.4667 101.371 16.92V19.76L100.571 20.64C100.704 19.9467 101.011 19.2533 101.491 18.56C101.971 17.84 102.571 17.2 103.291 16.64C104.011 16.08 104.811 15.64 105.691 15.32C106.571 14.9733 107.491 14.8 108.451 14.8ZM123.05 34.36C123.05 34.8133 122.89 35.2 122.57 35.52C122.25 35.84 121.864 36 121.41 36C120.957 36 120.584 35.84 120.29 35.52C119.997 35.2 119.85 34.8133 119.85 34.36V8C119.85 7.54667 119.997 7.17333 120.29 6.88C120.61 6.56 120.997 6.4 121.45 6.4C121.93 6.4 122.317 6.56 122.61 6.88C122.904 7.17333 123.05 7.54667 123.05 8V34.36ZM136.426 36.4C134.293 36.4 132.426 35.9467 130.826 35.04C129.226 34.1333 127.973 32.8933 127.066 31.32C126.186 29.72 125.746 27.88 125.746 25.8C125.746 23.48 126.2 21.5067 127.106 19.88C128.04 18.2267 129.24 16.9733 130.706 16.12C132.2 15.24 133.773 14.8 135.426 14.8C136.653 14.8 137.84 15.0267 138.986 15.48C140.133 15.9333 141.146 16.6 142.026 17.48C142.906 18.3333 143.613 19.3733 144.146 20.6C144.68 21.8 144.96 23.1467 144.986 24.64C144.986 25.0667 144.826 25.4267 144.506 25.72C144.186 26.0133 143.813 26.16 143.386 26.16H127.586L126.866 23.4H142.266L141.626 23.96V23.08C141.52 21.9867 141.146 21.0533 140.506 20.28C139.893 19.48 139.133 18.8667 138.226 18.44C137.346 18.0133 136.413 17.8 135.426 17.8C134.626 17.8 133.826 17.9467 133.026 18.24C132.253 18.5067 131.546 18.96 130.906 19.6C130.293 20.2133 129.786 21.0133 129.386 22C129.013 22.9867 128.826 24.1733 128.826 25.56C128.826 27.1067 129.133 28.4667 129.746 29.64C130.386 30.8133 131.266 31.7467 132.386 32.44C133.506 33.1067 134.813 33.44 136.306 33.44C137.24 33.44 138.053 33.32 138.746 33.08C139.44 32.84 140.04 32.5467 140.546 32.2C141.053 31.8267 141.48 31.4533 141.826 31.08C142.173 30.84 142.506 30.72 142.826 30.72C143.226 30.72 143.546 30.8533 143.786 31.12C144.053 31.3867 144.186 31.7067 144.186 32.08C144.186 32.5333 143.973 32.9333 143.546 33.28C142.8 34.1067 141.786 34.84 140.506 35.48C139.226 36.0933 137.866 36.4 136.426 36.4Z" fill="#DB292C"/>
</svg>
