<svg width="233" height="77" viewBox="0 0 233 77" fill="none" xmlns="http://www.w3.org/2000/svg">
<path d="M3 62V15.4545H23.1818C26.7273 15.4545 29.7045 15.9318 32.1136 16.8864C34.5379 17.8409 36.3636 19.1894 37.5909 20.9318C38.8333 22.6742 39.4545 24.7273 39.4545 27.0909C39.4545 28.803 39.0758 30.3636 38.3182 31.7727C37.5758 33.1818 36.5303 34.3636 35.1818 35.3182C33.8333 36.2576 32.2576 36.9091 30.4545 37.2727V37.7273C32.4545 37.803 34.2727 38.3106 35.9091 39.25C37.5455 40.1742 38.8485 41.4545 39.8182 43.0909C40.7879 44.7121 41.2727 46.6212 41.2727 48.8182C41.2727 51.3636 40.6061 53.6288 39.2727 55.6136C37.9545 57.5985 36.0758 59.1591 33.6364 60.2955C31.197 61.4318 28.2879 62 24.9091 62H3ZM15.6364 51.9091H21.5455C23.6667 51.9091 25.2576 51.5152 26.3182 50.7273C27.3788 49.9242 27.9091 48.7424 27.9091 47.1818C27.9091 46.0909 27.6591 45.1667 27.1591 44.4091C26.6591 43.6515 25.947 43.0758 25.0227 42.6818C24.1136 42.2879 23.0152 42.0909 21.7273 42.0909H15.6364V51.9091ZM15.6364 34.2727H20.8182C21.9242 34.2727 22.9015 34.0985 23.75 33.75C24.5985 33.4015 25.2576 32.9015 25.7273 32.25C26.2121 31.5833 26.4545 30.7727 26.4545 29.8182C26.4545 28.3788 25.9394 27.2803 24.9091 26.5227C23.8788 25.75 22.5758 25.3636 21 25.3636H15.6364V34.2727ZM42.0918 62V27.0909H54.6373V62H42.0918ZM48.3645 23.4545C46.6676 23.4545 45.213 22.8939 44.0009 21.7727C42.7888 20.6515 42.1827 19.303 42.1827 17.7273C42.1827 16.1515 42.7888 14.803 44.0009 13.6818C45.213 12.5606 46.6676 12 48.3645 12C50.0767 12 51.5312 12.5606 52.7282 13.6818C53.9403 14.803 54.5464 16.1515 54.5464 17.7273C54.5464 19.303 53.9403 20.6515 52.7282 21.7727C51.5312 22.8939 50.0767 23.4545 48.3645 23.4545ZM69.7348 15.4545V62H57.1893V15.4545H69.7348ZM89.0141 62.6364C85.2868 62.6364 82.0747 61.9242 79.3777 60.5C76.6959 59.0606 74.6277 57 73.1732 54.3182C71.7338 51.6212 71.0141 48.3939 71.0141 44.6364C71.0141 41.0303 71.7414 37.8788 73.1959 35.1818C74.6505 32.4848 76.7035 30.3864 79.355 28.8864C82.0065 27.3864 85.1353 26.6364 88.7414 26.6364C91.3777 26.6364 93.7641 27.0455 95.9005 27.8636C98.0368 28.6818 99.8626 29.8712 101.378 31.4318C102.893 32.9773 104.06 34.8561 104.878 37.0682C105.696 39.2803 106.105 41.7727 106.105 44.5455V47.4545H74.9232V40.5455H94.5595C94.5444 39.5455 94.2868 38.6667 93.7868 37.9091C93.302 37.1364 92.6429 36.5379 91.8095 36.1136C90.9914 35.6742 90.0595 35.4545 89.0141 35.4545C87.9989 35.4545 87.0671 35.6742 86.2186 36.1136C85.3702 36.5379 84.6883 37.1288 84.1732 37.8864C83.6732 38.6439 83.408 39.5303 83.3777 40.5455V48C83.3777 49.1212 83.6126 50.1212 84.0823 51C84.552 51.8788 85.2262 52.5682 86.105 53.0682C86.9838 53.5682 88.0444 53.8182 89.2868 53.8182C90.1505 53.8182 90.9383 53.697 91.6505 53.4545C92.3777 53.2121 92.9989 52.8636 93.5141 52.4091C94.0292 51.9394 94.408 51.3788 94.6505 50.7273H106.105C105.711 53.1515 104.779 55.2576 103.31 57.0455C101.84 58.8182 99.8929 60.197 97.4686 61.1818C95.0595 62.1515 92.2414 62.6364 89.0141 62.6364ZM128.202 27.0909V36.1818H105.202V27.0909H128.202ZM109.657 18.7273H122.202V50.7727C122.202 51.2576 122.286 51.6667 122.452 52C122.619 52.3182 122.877 52.5606 123.225 52.7273C123.574 52.8788 124.021 52.9545 124.566 52.9545C124.945 52.9545 125.384 52.9091 125.884 52.8182C126.399 52.7273 126.778 52.6515 127.021 52.5909L128.839 61.4091C128.278 61.5758 127.475 61.7803 126.43 62.0227C125.399 62.2652 124.172 62.4242 122.748 62.5C119.869 62.6515 117.452 62.3561 115.498 61.6136C113.543 60.8561 112.074 59.6667 111.089 58.0455C110.104 56.4242 109.627 54.3939 109.657 51.9545V18.7273ZM129.482 62V27.0909H142.027V62H129.482ZM135.755 23.4545C134.058 23.4545 132.603 22.8939 131.391 21.7727C130.179 20.6515 129.573 19.303 129.573 17.7273C129.573 16.1515 130.179 14.803 131.391 13.6818C132.603 12.5606 134.058 12 135.755 12C137.467 12 138.921 12.5606 140.118 13.6818C141.33 14.803 141.936 16.1515 141.936 17.7273C141.936 19.303 141.33 20.6515 140.118 21.7727C138.921 22.8939 137.467 23.4545 135.755 23.4545ZM157.125 42.3636V62H144.579V27.0909H156.488V33.7273H156.852C157.61 31.5152 158.943 29.7803 160.852 28.5227C162.776 27.2652 165.019 26.6364 167.579 26.6364C170.049 26.6364 172.193 27.2045 174.011 28.3409C175.844 29.4621 177.261 31.0076 178.261 32.9773C179.276 34.947 179.776 37.197 179.761 39.7273V62H167.216V42.3636C167.231 40.6364 166.791 39.2803 165.898 38.2955C165.019 37.3106 163.791 36.8182 162.216 36.8182C161.185 36.8182 160.284 37.0455 159.511 37.5C158.754 37.9394 158.17 38.5758 157.761 39.4091C157.352 40.2273 157.14 41.2121 157.125 42.3636ZM194.66 15.4545V62H182.114V15.4545H194.66ZM213.939 62.6364C210.212 62.6364 207 61.9242 204.303 60.5C201.621 59.0606 199.553 57 198.098 54.3182C196.659 51.6212 195.939 48.3939 195.939 44.6364C195.939 41.0303 196.666 37.8788 198.121 35.1818C199.575 32.4848 201.628 30.3864 204.28 28.8864C206.932 27.3864 210.06 26.6364 213.666 26.6364C216.303 26.6364 218.689 27.0455 220.825 27.8636C222.962 28.6818 224.788 29.8712 226.303 31.4318C227.818 32.9773 228.985 34.8561 229.803 37.0682C230.621 39.2803 231.03 41.7727 231.03 44.5455V47.4545H199.848V40.5455H219.485C219.469 39.5455 219.212 38.6667 218.712 37.9091C218.227 37.1364 217.568 36.5379 216.735 36.1136C215.916 35.6742 214.985 35.4545 213.939 35.4545C212.924 35.4545 211.992 35.6742 211.144 36.1136C210.295 36.5379 209.613 37.1288 209.098 37.8864C208.598 38.6439 208.333 39.5303 208.303 40.5455V48C208.303 49.1212 208.538 50.1212 209.007 51C209.477 51.8788 210.151 52.5682 211.03 53.0682C211.909 53.5682 212.969 53.8182 214.212 53.8182C215.075 53.8182 215.863 53.697 216.575 53.4545C217.303 53.2121 217.924 52.8636 218.439 52.4091C218.954 51.9394 219.333 51.3788 219.575 50.7273H231.03C230.636 53.1515 229.704 55.2576 228.235 57.0455C226.765 58.8182 224.818 60.197 222.394 61.1818C219.985 62.1515 217.166 62.6364 213.939 62.6364Z" fill="#DB292C"/>
</svg>
